<?xml version="1.0" encoding="UTF-8" standalone="no"?>
<svg xmlns:rdf="http://www.w3.org/1999/02/22-rdf-syntax-ns#" xmlns="http://www.w3.org/2000/svg" xml:space="preserve" height="98.188" viewBox="0 0 206.1925 98.1875" width="206.19" version="1.1" xmlns:cc="http://creativecommons.org/ns#" xmlns:xlink="http://www.w3.org/1999/xlink" xmlns:dc="http://purl.org/dc/elements/1.1/"><g transform="matrix(1.25 0 0 -1.25 -127.51 602.7)"><g transform="translate(.77443 .77443)"><path d="m156.28 480.56-13.223-23.585-12.685 23.585h-28.362l41.172-76.95 28.291 52.284h24.631l-27.753-51.543h28.597l27.545 51.751h27.748l13.123 24.458h-109.08z" fill="#cf4520"/><path d="m129.27 478.73 13.748-25.568 14.338 25.568h104.93l-11.153-20.787h-27.75l-27.545-51.753h-24.416l27.75 51.544h-28.801l-27.187-50.245-38.113 71.241h24.195z" fill="#fff"/><path d="m108.14 476.89h20.034l14.814-27.544 15.446 27.544h100.79l-9.184-17.112h-27.752l-27.547-51.75h-20.24l27.751 51.54h-32.97l-26.082-48.203-35.06 65.525z" fill="#6a2c3e"/></g></g></svg>
